<?xml version="1.0" encoding="utf-8"?>
<svg version="1.1" id="Layer_1" x="0px" y="0px" viewBox="0 0 512 512" style="enable-background:new 0 0 512 512;" xmlns="http://www.w3.org/2000/svg">
  <path style="fill: rgb(97, 166, 226);" d="M412.448,366.471c0,90.985-74.082,146.164-165.215,145.524c-4.217-0.034-8.389-0.183-12.526-0.446 h-0.011c-84.813-5.532-151.524-60.996-150.301-147.444c0.64-44.778,19.223-85.191,48.87-114.414 c12.8-12.606,20.972-29.064,23.418-46.87c0.08-0.526,0.149-0.994,0.229-1.406c8.709-45.475,46.367-79.682,91.499-79.682h0.48 c44.915,0.24,82.345,34.367,91.019,79.682c0.046,0.206,0.08,0.423,0.114,0.663c2.949,18.389,11.395,35.429,24.549,48.618 C394.15,280.354,412.448,321.271,412.448,366.471z"/>
  <path style="fill: rgb(82, 149, 204);" d="M248.89,121.733l-1.143,34.801c0,0-15.629,11.835-17.372,41.167 c-4.572,76.954-64.573,104.383-64.573,182.099s28.001,108.194,68.916,131.737l-0.011,0.011h-0.011 c-84.814-5.532-151.524-60.996-150.301-147.444c0.64-44.778,19.223-85.191,48.87-114.414c12.8-12.606,20.972-29.064,23.418-46.87 c0.08-0.526,0.149-0.994,0.229-1.406c8.709-45.475,46.367-79.682,91.499-79.682L248.89,121.733L248.89,121.733z"/>
  <path style="fill:#B25719;" d="M246.627,154.299c-0.495,0-0.995-0.043-1.498-0.131c-4.661-0.822-7.773-5.265-6.953-9.926l0,0 c0.136-0.778,13.257-78.168-19.014-110.439c-3.348-3.348-3.348-8.775,0-12.121c3.348-3.348,8.775-3.348,12.121,0 c38.585,38.585,24.399,122.002,23.777,125.533C254.325,151.373,250.708,154.299,246.627,154.299z"/>
  <path style="fill: rgb(82, 137, 204);" d="M228.496,141.119c5.048-0.051,8.389-0.114,11.401-0.314c2.96-0.17,5.391-0.28,7.845-0.283 c2.453-0.017,4.88,0.095,7.834,0.262c3.009,0.199,6.348,0.271,11.411,0.337c0.015,5.097-2.673,9.214-6.25,12.135 c-3.626,2.896-8.321,4.42-12.995,4.407c-4.673-0.008-9.364-1.53-12.985-4.43C231.184,150.309,228.497,146.201,228.496,141.119z"/>
  <path style="fill:#B25719;" d="M276.431,69.153c-30.046,0-43.912-20.309-44.6-21.349c-1.917-2.895-1.125-6.794,1.769-8.712 c2.885-1.91,6.768-1.129,8.692,1.741c0.693,1.014,16.202,22.948,51.618,13.223c3.348-0.922,6.807,1.049,7.726,4.398 c0.919,3.348-1.049,6.807-4.398,7.726C289.589,68.279,282.661,69.153,276.431,69.153z"/>
  <path style="fill:#2FCC6E;" d="M384.905,76.859l42.718-45.119L371.103,5.929c-34.697-15.846-75.534,1.263-88.576,37.108 l-1.178,3.239c-3.354,9.221-1.347,19.541,5.221,26.832l2.307,2.561C314.406,104.009,358.68,104.558,384.905,76.859z"/>
  <g/>
  <g/>
  <g/>
  <g/>
  <g/>
  <g/>
  <g/>
  <g/>
  <g/>
  <g/>
  <g/>
  <g/>
  <g/>
  <g/>
  <g/>
  <g transform="matrix(0.376559, 0, 0, 0.376559, 155.132141, 233.930664)" style="">
    <g>
      <path d="M386.689,304.403c-35.587,0-64.538,28.951-64.538,64.538s28.951,64.538,64.538,64.538 c35.593,0,64.538-28.951,64.538-64.538S422.276,304.403,386.689,304.403z M386.689,401.21c-17.796,0-32.269-14.473-32.269-32.269 c0-17.796,14.473-32.269,32.269-32.269c17.796,0,32.269,14.473,32.269,32.269C418.958,386.738,404.485,401.21,386.689,401.21z"/>
    </g>
  </g>
  <g transform="matrix(0.376559, 0, 0, 0.376559, 155.132141, 233.930664)" style="">
    <g>
      <path d="M166.185,304.403c-35.587,0-64.538,28.951-64.538,64.538s28.951,64.538,64.538,64.538s64.538-28.951,64.538-64.538 S201.772,304.403,166.185,304.403z M166.185,401.21c-17.796,0-32.269-14.473-32.269-32.269c0-17.796,14.473-32.269,32.269-32.269 c17.791,0,32.269,14.473,32.269,32.269C198.454,386.738,183.981,401.21,166.185,401.21z"/>
    </g>
  </g>
  <g transform="matrix(0.376559, 0, 0, 0.376559, 155.132141, 233.930664)" style="">
    <g>
      <path d="M430.15,119.675c-2.743-5.448-8.32-8.885-14.419-8.885h-84.975v32.269h75.025l43.934,87.384l28.838-14.5L430.15,119.675z"/>
    </g>
  </g>
  <g transform="matrix(0.376559, 0, 0, 0.376559, 155.132141, 233.930664)" style="">
    <g>
      <rect x="216.202" y="353.345" width="122.084" height="32.269"/>
    </g>
  </g>
  <g transform="matrix(0.376559, 0, 0, 0.376559, 155.132141, 233.930664)" style="">
    <g>
      <path d="M117.781,353.345H61.849c-8.912,0-16.134,7.223-16.134,16.134c0,8.912,7.223,16.134,16.134,16.134h55.933 c8.912,0,16.134-7.223,16.134-16.134C133.916,360.567,126.693,353.345,117.781,353.345z"/>
    </g>
  </g>
  <g transform="matrix(0.376559, 0, 0, 0.376559, 155.132141, 233.930664)" style="">
    <g>
      <path d="M508.612,254.709l-31.736-40.874c-3.049-3.937-7.755-6.239-12.741-6.239H346.891V94.655 c0-8.912-7.223-16.134-16.134-16.134H61.849c-8.912,0-16.134,7.223-16.134,16.134s7.223,16.134,16.134,16.134h252.773v112.941 c0,8.912,7.223,16.134,16.134,16.134h125.478l23.497,30.268v83.211h-44.639c-8.912,0-16.134,7.223-16.134,16.134 c0,8.912,7.223,16.134,16.134,16.134h60.773c8.912,0,16.134-7.223,16.135-16.134V264.605 C512,261.023,510.806,257.538,508.612,254.709z"/>
    </g>
  </g>
  <g transform="matrix(0.376559, 0, 0, 0.376559, 155.132141, 233.930664)" style="">
    <g>
      <path d="M116.706,271.597H42.487c-8.912,0-16.134,7.223-16.134,16.134c0,8.912,7.223,16.134,16.134,16.134h74.218 c8.912,0,16.134-7.223,16.134-16.134C132.84,278.82,125.617,271.597,116.706,271.597z"/>
    </g>
  </g>
  <g transform="matrix(0.376559, 0, 0, 0.376559, 155.132141, 233.930664)" style="">
    <g>
      <path d="M153.815,208.134H16.134C7.223,208.134,0,215.357,0,224.269s7.223,16.134,16.134,16.134h137.681 c8.912,0,16.134-7.223,16.134-16.134S162.727,208.134,153.815,208.134z"/>
    </g>
  </g>
  <g transform="matrix(0.376559, 0, 0, 0.376559, 155.132141, 233.930664)" style="">
    <g>
      <path d="M180.168,144.672H42.487c-8.912,0-16.134,7.223-16.134,16.134c0,8.912,7.223,16.134,16.134,16.134h137.681 c8.912,0,16.134-7.223,16.134-16.134C196.303,151.895,189.08,144.672,180.168,144.672z"/>
    </g>
  </g>
  <g transform="matrix(0.32419, 0, 0, 0.32419, 600.099731, 323.663971)" style=""/>
  <g transform="matrix(0.32419, 0, 0, 0.32419, 600.099731, 323.663971)" style=""/>
  <g transform="matrix(0.32419, 0, 0, 0.32419, 600.099731, 323.663971)" style=""/>
  <g transform="matrix(0.32419, 0, 0, 0.32419, 600.099731, 323.663971)" style=""/>
  <g transform="matrix(0.32419, 0, 0, 0.32419, 600.099731, 323.663971)" style=""/>
  <g transform="matrix(0.32419, 0, 0, 0.32419, 600.099731, 323.663971)" style=""/>
  <g transform="matrix(0.32419, 0, 0, 0.32419, 600.099731, 323.663971)" style=""/>
  <g transform="matrix(0.32419, 0, 0, 0.32419, 600.099731, 323.663971)" style=""/>
  <g transform="matrix(0.32419, 0, 0, 0.32419, 600.099731, 323.663971)" style=""/>
  <g transform="matrix(0.32419, 0, 0, 0.32419, 600.099731, 323.663971)" style=""/>
  <g transform="matrix(0.32419, 0, 0, 0.32419, 600.099731, 323.663971)" style=""/>
  <g transform="matrix(0.32419, 0, 0, 0.32419, 600.099731, 323.663971)" style=""/>
  <g transform="matrix(0.32419, 0, 0, 0.32419, 600.099731, 323.663971)" style=""/>
  <g transform="matrix(0.32419, 0, 0, 0.32419, 600.099731, 323.663971)" style=""/>
  <g transform="matrix(0.32419, 0, 0, 0.32419, 600.099731, 323.663971)" style=""/>
</svg>